<svg xmlns="http://www.w3.org/2000/svg" width="271.07" height="314.001" viewBox="0 0 271.07 314.001"><defs><style>.a{fill:#fc60db;}.b{fill:#fff;}.c{fill:#a901a2;}.d{fill:none;stroke:#d1d1d2;stroke-linecap:round;stroke-width:8px;}</style></defs><path class="a" d="M96.7,272.52a37.24,37.24,0,0,0,56.21,0l15.94,12.81,20.09,2.6,11.31,14,1.62,9-57.73-3.86H47.6l9.7-20.27,23.44-3.35Z"/><path class="a" d="M158.34,207.18l-2,30.49h20.32l5.85-13.86-3.54-14.16Z"/><path class="a" d="M90.44,207.18l2,30.49H72.12l-5.85-13.86,3.54-14.16Z"/><path class="b" d="M154.66,215.69c0-30.19-16.45-36.53-30.25-36.53h0c-13.79,0-30.24,6.34-30.24,36.53,0,30,18.2,49.86,30.24,49.86h0C136.45,265.55,154.66,245.67,154.66,215.69Z"/><path class="c" d="M205.66,310.25a2.271,2.271,0,0,1,0-.45c-2.93-17-10.73-27.07-20.89-27.07h-2.23c-9.17,0-16.42,0-23.75-10.5a3.49,3.49,0,0,0-2.87-1.48,3.45,3.45,0,0,0-2,.62,3.49,3.49,0,0,0-.86,4.85c8.69,12.45,18.47,13.49,27.73,13.49h4c5.18,0,9.76,5.54,12.58,15.18a1.7,1.7,0,0,1-1.64,2.18H53.11a1.69,1.69,0,0,1-1.36-.68,1.71,1.71,0,0,1-.27-1.5c2.82-9.64,7.4-15.18,12.58-15.18H68c9.66,0,19.83-1,28.53-13.49a3.49,3.49,0,1,0-5.72-4C84,282,76.63,282.73,67.7,282.73H64.05c-10.15,0-18,10.11-20.88,27.06a2.26,2.26,0,0,1,0,.45,1.81,1.81,0,0,1-.05.31,2.328,2.328,0,0,1,.08.38,2.905,2.905,0,0,0,.4,1.27,2.85,2.85,0,0,0,.84,1,2.929,2.929,0,0,0,.53.36,3.19,3.19,0,0,0,.67.25,2.712,2.712,0,0,1,.46.18,2.561,2.561,0,0,0,.47,0H202.25a3.744,3.744,0,0,0,.48,0,2.822,2.822,0,0,1,.48-.19,3.836,3.836,0,0,0,.64-.24,4,4,0,0,0,.54-.37,3,3,0,0,0,.47-.45,2.61,2.61,0,0,0,.37-.55,2.74,2.74,0,0,0,.27-.59,2.819,2.819,0,0,0,.13-.68.717.717,0,0,1,.07-.37,2.427,2.427,0,0,1-.04-.3Z"/><path class="c" d="M175.57,204.12a1.72,1.72,0,0,1-1-.86v-1.65c0-16.42-4.28-29-12.71-37.46s-21-12.71-37.48-12.71-29,4.28-37.47,12.71-12.71,21-12.72,37.41v1.7a1.7,1.7,0,0,1-1,.86,13.83,13.83,0,0,0-9.41,13v10.37A13.88,13.88,0,0,0,77.71,241.4h14a1.9,1.9,0,0,1,.3.49c6.87,18,20.21,30.63,32.42,30.63a20.431,20.431,0,0,0,6.32-1,3.48,3.48,0,0,0-1.06-6.8,3.591,3.591,0,0,0-1.08.17,13.691,13.691,0,0,1-4.18.69c-12,0-30.24-19.88-30.24-49.86,0-30.19,16.45-36.53,30.24-36.53,10.29,0,18.09,3.37,23.19,10a3.481,3.481,0,0,0,5.53-4.23c-6.39-8.36-16.32-12.77-28.72-12.77-19.26,0-32,10.57-35.91,29.76a1.7,1.7,0,0,1-1.67,1.36H82.9a1.7,1.7,0,0,1-1.7-1.7c0-14.76,3.48-25.42,10.63-32.57s17.82-10.63,32.58-10.63S149.84,161.89,157,169s10.63,17.81,10.63,32.57a1.7,1.7,0,0,1-1.7,1.7H157.2a3.47,3.47,0,0,0-3,3.88,71.528,71.528,0,0,1,.49,8.5,67.25,67.25,0,0,1-3.38,21.14,3.44,3.44,0,0,0,.2,2.65,3.48,3.48,0,0,0,2,1.75,3.22,3.22,0,0,0,.88.16h11.54a1.7,1.7,0,0,1,1.7,1.7,6.9,6.9,0,0,1-6.89,6.89H140a1.7,1.7,0,0,1-1.7-1.7V243.1a3.5,3.5,0,1,0-7,0v10.38a3.48,3.48,0,0,0,3.48,3.48h26A13.88,13.88,0,0,0,174.6,243.1v-.95a1.73,1.73,0,0,1,1.13-1.61,13.87,13.87,0,0,0,9.25-13V217.17a13.83,13.83,0,0,0-9.41-13.05Zm-90,6.16a1.69,1.69,0,0,1,1.7,1.78v.43c-.05,1.09-.09,2.12-.09,3.2a74.453,74.453,0,0,0,1.887,16.648,1.72,1.72,0,0,1-.327,1.452,1.69,1.69,0,0,1-1.33.64h-9.7a6.9,6.9,0,0,1-6.89-6.89V217.17a6.9,6.9,0,0,1,6.89-6.89ZM178,227.54a6.9,6.9,0,0,1-6.89,6.89h-9.74a1.71,1.71,0,0,1-1.33-.64,1.73,1.73,0,0,1-.33-1.44,74.458,74.458,0,0,0,1.91-16.66c0-1.23,0-2.45-.1-3.63a1.68,1.68,0,0,1,.47-1.26,1.71,1.71,0,0,1,1.23-.52h7.89a6.9,6.9,0,0,1,6.89,6.89Z"/><line class="d" x1="29.76" transform="translate(237.31 97.54)"/><line class="d" y2="30" transform="translate(252.55 82.66)"/><line class="d" x1="29.76" transform="translate(4 142.88)"/><line class="d" y2="29.76" transform="translate(18.88 128)"/><line class="d" x1="29.76" transform="translate(190.82 259.17)"/><line class="d" y2="30" transform="translate(206.12 244.5)"/><path class="b" d="M195.55,122.59H178.59l-3.65,19.75-25.32-19.75H101.75V56.91h93.8Z"/><path class="a" d="M53.19,70.27H70.15L73.8,90.01,99.13,70.27l2.62-13.36,45.24-1.07V4.59H53.19Z"/><path class="c" d="M124.19,83.61a3.24,3.24,0,1,1,0-6.48H172.4a3.24,3.24,0,1,1,0,6.48Z"/><path class="c" d="M124.19,102.89a3.24,3.24,0,1,1,0-6.47H172.4a3.24,3.24,0,1,1,0,6.47Z"/><path class="c" d="M76,30.58a3.24,3.24,0,0,1,0-6.48h48.21a3.24,3.24,0,0,1,0,6.48Z"/><path class="c" d="M76,49.87a3.24,3.24,0,0,1,0-6.48H90.45a3.24,3.24,0,0,1,0,6.48Z"/><path class="c" d="M191.68,53H153.12a1.58,1.58,0,0,1-1.58-1.58V8.06A8.07,8.07,0,0,0,143.48,0H56.7a8.07,8.07,0,0,0-8.06,8.06V65.91A8.07,8.07,0,0,0,56.7,74h9.64a1.58,1.58,0,0,1,1.58,1.58V94.84a3.25,3.25,0,0,0,5.32,2.49l21-17.52a1.55,1.55,0,0,1,1-.37A1.58,1.58,0,0,1,96.85,81v37.91a8.07,8.07,0,0,0,8.06,8.06h41.64a1.55,1.55,0,0,1,1,.37l27.58,23a3.26,3.26,0,0,0,2.08.75,3.16,3.16,0,0,0,1.38-.31,3.23,3.23,0,0,0,1.86-2.93V128.58A1.58,1.58,0,0,1,182,127h9.64a8.07,8.07,0,0,0,8.06-8.06V61.09A8.07,8.07,0,0,0,191.68,53ZM96.85,61.09v7.38a1.59,1.59,0,0,1-.57,1.22L77,85.76a1.6,1.6,0,0,1-1,.37,1.63,1.63,0,0,1-.67-.15,1.59,1.59,0,0,1-.91-1.44V70.73a3.25,3.25,0,0,0-3.24-3.24H56.7a1.58,1.58,0,0,1-1.58-1.58V8.06A1.58,1.58,0,0,1,56.7,6.48h86.78a1.58,1.58,0,0,1,1.58,1.58V51.45A1.58,1.58,0,0,1,143.48,53H104.91a8.07,8.07,0,0,0-8.06,8.09Zm96.42,57.85a1.59,1.59,0,0,1-1.59,1.58H177.22a3.25,3.25,0,0,0-3.24,3.24v13.81a1.58,1.58,0,0,1-.91,1.44,1.56,1.56,0,0,1-.67.15,1.59,1.59,0,0,1-1-.37l-21-17.52a3.27,3.27,0,0,0-2.07-.75H104.91a1.58,1.58,0,0,1-1.58-1.58V61.09a1.58,1.58,0,0,1,1.58-1.58h86.77a1.59,1.59,0,0,1,1.59,1.58Z"/></svg>