<svg xmlns="http://www.w3.org/2000/svg" width="266.27" height="303.74" viewBox="0 0 266.27 303.74">
    <defs>
        <style>.a{fill:#fff;}.b{fill:#fc60db;}.c{fill:#a901a2;}.d{fill:none;stroke:#d1d1d2;stroke-linecap:round;stroke-width:8px;}</style>
    </defs>
    <rect class="a" width="144.47" height="110.4" transform="translate(62.81 37.9)"/>
    <rect class="b" width="144.47" height="33.05" transform="translate(62.81 4.85)"/>
    <path class="c" d="M69.76,153.94C63,153.94,58,148.3,58,140.82V10.47C58,5,63.59,0,69.76,0H200.12c6.17,0,11.79,5,11.79,10.47V140.82c0,7.48-5.06,13.12-11.79,13.12Zm-3.58-115a1.62,1.62,0,0,0-1.61,1.62V140.82c0,3.9,2.09,6.52,5.19,6.52H200.12c3.06,0,5.19-2.68,5.19-6.52V40.51a1.62,1.62,0,0,0-1.61-1.62ZM69.76,6.6c-2.81,0-5,2.22-5.18,3.69a1.481,1.481,0,0,0,0,.21V30.68a1.61,1.61,0,0,0,1.61,1.61H203.7a1.61,1.61,0,0,0,1.61-1.61V10.47a1.691,1.691,0,0,0,0-.23c-.21-1.45-2.38-3.64-5.18-3.64Z"/>
    <path class="c" d="M77.62,19.45h0a3.3,3.3,0,0,1,3.3-3.3h0a3.3,3.3,0,0,1,3.3,3.3h0a3.3,3.3,0,0,1-3.3,3.3h0a3.3,3.3,0,0,1-3.3-3.3Z"/>
    <path class="c" d="M90.81,19.45h0a3.3,3.3,0,0,1,3.3-3.3h0a3.3,3.3,0,0,1,3.3,3.3h0a3.3,3.3,0,0,1-3.3,3.3h0A3.3,3.3,0,0,1,90.81,19.45Z"/>
    <path class="c" d="M104,19.45h0a3.3,3.3,0,0,1,3.3-3.3h0a3.3,3.3,0,0,1,3.3,3.3h0a3.3,3.3,0,0,1-3.3,3.3h0A3.3,3.3,0,0,1,104,19.45Z"/>
    <path class="b" d="M89.74,57.76h92.27v55.55H132.59l-24.34,20.55V114.18H89.74Z"/>
    <path class="c" d="M107.92,79.29h54a3.3,3.3,0,1,0,0-6.6h-54a3.3,3.3,0,1,0,0,6.6Z"/>
    <path class="c" d="M162,98.93a3.3,3.3,0,0,0,0-6.6H108a3.3,3.3,0,1,0,0,6.6Z"/>
    <path class="c" d="M106.49,137.9a3.36,3.36,0,0,0,1.43.32,3.27,3.27,0,0,0,2.06-.72l23.21-18.57a1.61,1.61,0,0,1,1-.35h41a9.76,9.76,0,0,0,9.75-9.75V61.25A8.23,8.23,0,0,0,176.7,53H93.19A8.22,8.22,0,0,0,85,61.25v49.12a8.22,8.22,0,0,0,8.21,8.21H103a1.61,1.61,0,0,1,1.61,1.61v14.74a3.34,3.34,0,0,0,1.88,2.97ZM93.19,112a1.61,1.61,0,0,1-1.14-.47,1.63,1.63,0,0,1-.47-1.14V61.25a1.61,1.61,0,0,1,1.61-1.61h83.5a1.61,1.61,0,0,1,1.61,1.61v47.58a3.15,3.15,0,0,1-3.15,3.15H132.48a3.33,3.33,0,0,0-2.06.72L113.84,126a1.58,1.58,0,0,1-1,.36,1.66,1.66,0,0,1-.69-.16,1.63,1.63,0,0,1-.92-1.46v-9.42a3.3,3.3,0,0,0-3.3-3.3Z"/>
    <path class="a" d="M132.12,205.68,97.11,170.67,70.83,196.95l35.85,35.85Z"/>
    <path class="a" d="M199.69,273.24l-35.01-35.02L138.4,264.5l35.85,35.86Z"/>
    <path class="b" d="M146.62,194.68l13.91-13.92,29.75,29.74-13.73,13.72Z"/>
    <path class="b" d="M161.85,180.18l11.48-11.48,11.43,6,15.47,15.47-3.77,15.64-4.83,4.14Z"/>
    <path class="b" d="M77.62,276.3,70.2,299.1l25.41-5.91Z"/>
    <path class="a" d="M83.19,259.4l-5.57,15.79,17.99,18,17.61-5.96Z"/>
    <path class="b" d="M148.04,191.05,82.02,257.07l31.25,31.24,65.66-65.66Z"/>
    <path class="a" d="M148.04,193.3l30.12,30.12,13.47-13.47-29.78-29.77Z"/>
    <path class="c" d="M168.86,238.8a1.44,1.44,0,0,1,0-2l29.93-29.93a16.09,16.09,0,0,0,0-22.73L186.4,171.72a16.12,16.12,0,0,0-22.73,0l-29.93,29.93a1.42,1.42,0,0,1-2,0L98,167.89a2.92,2.92,0,0,0-4.14,0L67.64,194.06a2.95,2.95,0,0,0,0,4.14L101.41,232a1.44,1.44,0,0,1,0,2L80.13,255.27l-.12.14a3,3,0,0,0-.56.86.21.21,0,0,1-.07.18c-.07.07-.07.15-.11.25L66.9,300a2.93,2.93,0,0,0,2.82,3.74,2.719,2.719,0,0,0,.8-.12l43.3-12.36a1.171,1.171,0,0,1,.25-.11l.22-.1a3.069,3.069,0,0,0,.81-.53l.09-.08.06-.05,21.28-21.28a1.44,1.44,0,0,1,1-.41,1.46,1.46,0,0,1,1,.41l33.76,33.77a2.94,2.94,0,0,0,2.07.86,2.9,2.9,0,0,0,2.07-.86l26.17-26.17a2.92,2.92,0,0,0,0-4.14ZM164.7,179l3.11-3.11a10.22,10.22,0,0,1,14.45,0l12.39,12.39a10.22,10.22,0,0,1,0,14.44l-3.12,3.11a1.42,1.42,0,0,1-2,0L164.7,181A1.42,1.42,0,0,1,164.7,179Zm-12.39,12.39,6.22-6.22a1.44,1.44,0,0,1,2,0L185.37,210a1.45,1.45,0,0,1,.42,1,1.47,1.47,0,0,1-.42,1l-6.23,6.22a1.42,1.42,0,0,1-2,0l-24.81-24.81a1.42,1.42,0,0,1,0-2Zm-77.44,5.77a1.42,1.42,0,0,1,0-2l20-20a1.44,1.44,0,0,1,2,0l6.91,6.91a1.44,1.44,0,0,1,0,2l-5.64,5.64a2.931,2.931,0,0,0,4.15,4.14L108,188.2a1.44,1.44,0,0,1,2,0l4.73,4.74a1.42,1.42,0,0,1,0,2l-5.63,5.64a2.927,2.927,0,1,0,4.14,4.14l5.64-5.64a1.42,1.42,0,0,1,2,0l6.69,6.7a1.4,1.4,0,0,1,0,2l-20,20a1.4,1.4,0,0,1-2,0Zm12.39,59.28,58.88-58.88a1.44,1.44,0,0,1,2,0l9.32,9.32a1.42,1.42,0,0,1,0,2L98.6,267.77a1.44,1.44,0,0,1-1,.41,1.46,1.46,0,0,1-1-.41l-9.32-9.33a1.42,1.42,0,0,1-.02-2.02Zm1.66,35.84-12.46,3.56a1.322,1.322,0,0,1-.39.06,1.43,1.43,0,0,1-1.38-1.83l3.56-12.46a1.44,1.44,0,0,1,1-1,1.488,1.488,0,0,1,.36-.05,1.44,1.44,0,0,1,1,.42l8.9,8.9a1.43,1.43,0,0,1,.37,1.38,1.4,1.4,0,0,1-.96,1Zm16.23-4.64-5.74,1.64c-1.66.48-3.07-.8-3.58-1.36l-.06-.08-.16-.17h0L81.36,273.41A1.44,1.44,0,0,1,81,272l1.9-6.64a1.44,1.44,0,0,1,1-1,1.391,1.391,0,0,1,.35,0,1.42,1.42,0,0,1,1,.42l20.49,20.49a1.43,1.43,0,0,1-.62,2.38Zm8.94-4.37a1.42,1.42,0,0,1-2,0l-9.32-9.32a1.42,1.42,0,0,1,0-2L161.63,213a1.47,1.47,0,0,1,1-.42,1.49,1.49,0,0,1,1,.42l9.32,9.32a1.45,1.45,0,0,1,.42,1,1.42,1.42,0,0,1-.42,1Zm81.31-7.61-20,20a1.45,1.45,0,0,1-1,.42,1.42,1.42,0,0,1-1-.42L142.69,265a1.42,1.42,0,0,1,0-2l20-20a1.42,1.42,0,0,1,1-.42,1.45,1.45,0,0,1,1,.42l6.69,6.69a1.44,1.44,0,0,1,0,2l-5.64,5.63a2.931,2.931,0,1,0,4.14,4.15l5.64-5.64a1.44,1.44,0,0,1,2,0l4.73,4.73a1.45,1.45,0,0,1,.42,1,1.42,1.42,0,0,1-.42,1l-5.64,5.64a2.931,2.931,0,1,0,4.15,4.14l5.64-5.64a1.4,1.4,0,0,1,1-.42,1.43,1.43,0,0,1,1,.42l6.92,6.92a1.42,1.42,0,0,1,0,2Z"/>
    <line class="d" y1="27.33" transform="translate(248.61 146.36)"/>
    <line class="d" x1="27.54" transform="translate(234.73 160.35)"/>
    <line class="d" y1="29.29" transform="translate(18.64 31.24)"/>
    <line class="d" x1="29.29" transform="translate(4 45.88)"/>
    <line class="d" y1="29.29" transform="translate(26.63 187.59)"/>
    <line class="d" x1="29.52" transform="translate(11.54 202.64)"/>
</svg>