<svg xmlns="http://www.w3.org/2000/svg" width="285.33" height="313.811" viewBox="0 0 285.33 313.811">
    <defs>
        <style>.a{fill:#fff;}.b{fill:#fc60db;}.c{fill:#a901a2;}.d{fill:none;stroke:#d1d1d2;stroke-linecap:round;stroke-width:8px;}</style>
    </defs>
    <g transform="translate(0 0.041)">
        <path class="a" d="M85.63,114.05H210.14l15.27-5,7.65-24L227.11,68.6l-15.8-12.07L207.06,29,191.8,9.29,169.22,1.64,143.66,10l-15.6,13.94-8.53,3.91-18,4.42L89.11,47.19l-1,7.79L68.71,68.6,63.1,89.34,74.32,116l6.8,1.21Z"/>
        <path class="b" d="M186.32,153.92l-10,11.56L150.8,175l-25.49-6.12-17-19.44V97h78Z"/>
        <circle class="a" cx="10.5" cy="10.5" r="10.5" transform="translate(137.37 119.32)"/>
        <path class="c" d="M84.89,121.67a3.911,3.911,0,0,1-.76-.07c-15.3-3-26-16.84-26-33.63a34.18,34.18,0,0,1,25.8-33.19A1.89,1.89,0,0,0,85.35,53v-.14A30.09,30.09,0,0,1,122.29,23.6a1.65,1.65,0,0,0,.44,0,1.89,1.89,0,0,0,1.59-.88,48.71,48.71,0,0,1,89.93,25.76,45.061,45.061,0,0,1-.31,5.32,1.9,1.9,0,0,0,1.22,2A34.43,34.43,0,0,1,237.6,88c0,16.8-10.47,30.05-26.06,33a3.818,3.818,0,0,1-.68.06h0a3.85,3.85,0,0,1-.73-7.63C222,111.15,229.91,101,229.91,88a26.67,26.67,0,0,0-21.34-26,3.86,3.86,0,0,1-3-4.56h0a41,41,0,0,0-76.7-27,3.84,3.84,0,0,1-4.9,1.83A22.28,22.28,0,0,0,93.45,57a3.85,3.85,0,0,1-3.08,4.5l-.35.05A26.48,26.48,0,0,0,65.82,88c0,13.27,8,23.76,19.8,26.08a3.85,3.85,0,0,1-.74,7.62Z"/>
        <path class="c" d="M147.87,156.57a3.84,3.84,0,0,1-3.84-3.84V146a1.87,1.87,0,0,0-1.25-1.77,15.3,15.3,0,1,1,10.19,0,1.89,1.89,0,0,0-1.25,1.77v6.78A3.84,3.84,0,0,1,147.87,156.57Zm0-34.35a7.61,7.61,0,1,0,7.61,7.6h0a7.61,7.61,0,0,0-7.61-7.6Z"/>
        <path class="c" d="M147.87,179.48A44,44,0,0,1,104,135.55V95.47a3.84,3.84,0,0,1,3.84-3.84h10.7a1.89,1.89,0,0,0,1.88-1.88V83.26a28.278,28.278,0,1,1,56.555,0l-.005,6.49a1.88,1.88,0,0,0,1.88,1.88H188a3.84,3.84,0,0,1,3.84,3.84v40.09A44,44,0,0,1,147.87,179.48ZM113.52,99.31a1.88,1.88,0,0,0-1.88,1.88v34.36a36.238,36.238,0,1,0,72.475,0l-.005-34.36a1.88,1.88,0,0,0-1.88-1.88Zm35.12-36.64a20.61,20.61,0,0,0-20.58,20.58v6.49a1.88,1.88,0,0,0,1.87,1.88h37.42a1.88,1.88,0,0,0,1.87-1.88V83.25a20.6,20.6,0,0,0-20.58-20.58Z"/>
        <rect class="b" width="162.57" height="43.05" transform="translate(66.88 198.7)"/>
        <rect class="a" width="162.57" height="43.05" transform="translate(66.88 266.24)"/>
        <path class="c" d="M69.94,247a9.31,9.31,0,0,1-9.3-9.3V204.3a9.31,9.31,0,0,1,9.3-9.31H225.8a9.33,9.33,0,0,1,9.31,9.31v33.4a9.32,9.32,0,0,1-9.31,9.3Zm0-44.53a1.82,1.82,0,0,0-1.82,1.83h0v33.4a1.81,1.81,0,0,0,1.82,1.82H225.79a1.82,1.82,0,0,0,1.82-1.82h0V204.3a1.82,1.82,0,0,0-1.82-1.83H69.94Z"/>
        <path class="c" d="M84.3,221h0a3.73,3.73,0,0,1,3.7-3.77H207.71a3.73,3.73,0,0,1,3.73,3.73h0a3.73,3.73,0,0,1-3.73,3.75H88A3.74,3.74,0,0,1,84.3,221Z"/>
        <path class="c" d="M69.94,313.77a9.31,9.31,0,0,1-9.3-9.31v-33.4a9.31,9.31,0,0,1,9.3-9.3H225.8a9.32,9.32,0,0,1,9.31,9.3v33.4a9.33,9.33,0,0,1-9.31,9.31Zm0-44.53a1.82,1.82,0,0,0-1.82,1.83v33.4a1.82,1.82,0,0,0,1.82,1.82H225.79a1.83,1.83,0,0,0,1.82-1.82v-33.4a1.82,1.82,0,0,0-1.82-1.83Z"/>
        <path class="c" d="M84.3,287.77h0A3.73,3.73,0,0,1,88,284h0a3.74,3.74,0,0,1,3.74,3.73h0A3.75,3.75,0,0,1,88,291.51h0a3.74,3.74,0,0,1-3.74-3.74Z"/>
        <path class="c" d="M99.26,287.77h0A3.73,3.73,0,0,1,103,284h0a3.73,3.73,0,0,1,3.74,3.74h0a3.75,3.75,0,0,1-3.74,3.74h0a3.75,3.75,0,0,1-3.74-3.71Z"/>
        <path class="c" d="M114.22,287.77h0A3.73,3.73,0,0,1,118,284h0a3.73,3.73,0,0,1,3.73,3.73h0a3.74,3.74,0,0,1-3.73,3.74h0a3.74,3.74,0,0,1-3.74-3.74Z"/>
        <path class="c" d="M129.17,287.77h0a3.74,3.74,0,0,1,3.74-3.74h0a3.73,3.73,0,0,1,3.74,3.73h0a3.75,3.75,0,0,1-3.74,3.74h0a3.75,3.75,0,0,1-3.74-3.74Z"/>
        <path class="c" d="M144.13,287.77h0a3.74,3.74,0,0,1,3.74-3.74h0a3.73,3.73,0,0,1,3.74,3.73h0a3.75,3.75,0,0,1-3.73,3.74h0a3.75,3.75,0,0,1-3.74-3.74Z"/>
        <path class="c" d="M159.09,287.77h0a3.74,3.74,0,0,1,3.74-3.74h0a3.73,3.73,0,0,1,3.74,3.73h0a3.75,3.75,0,0,1-3.73,3.74h0a3.75,3.75,0,0,1-3.74-3.74Z"/>
        <line class="d" y2="29.76" transform="translate(18.88 136.48)"/>
        <line class="d" x2="30" transform="translate(4 151.01)"/>
        <line class="d" y2="29.76" transform="translate(18.88 136.48)"/>
        <line class="d" x2="30" transform="translate(4 151.01)"/>
        <line class="d" y2="29.77" transform="translate(266.45 241.49)"/>
        <line class="d" x2="29.76" transform="translate(251.57 256.37)"/>
        <line class="d" y2="29.77" transform="translate(266.45 241.49)"/>
        <line class="d" x2="29.76" transform="translate(251.57 256.37)"/>
        <line class="d" y2="29.76" transform="translate(258.67 22.54)"/>
        <line class="d" x2="30" transform="translate(244 37.01)"/>
    </g>
</svg>