<svg xmlns="http://www.w3.org/2000/svg" width="285.329" height="313.763" viewBox="0 0 285.329 313.763">
    <defs>
        <style>.a{fill:#fff;}.b{fill:#fc60db;}.c{fill:#a901a2;}.d{fill:none;stroke:#d1d1d2;stroke-linecap:round;stroke-width:8px;}</style>
    </defs>
    <g transform="translate(-976 -4997)">
        <g transform="translate(1034.137 4997)">
            <g transform="translate(4.966 1.635)">
                <path class="a" d="M284.756,376.539H409.267l15.272-5,7.648-23.964-5.948-16.486-15.806-12.067-4.249-27.533L390.931,271.78l-22.579-7.648-25.562,8.328-15.6,13.937-8.529,3.909-18.015,4.419L288.234,309.68l-1.02,7.789-19.375,13.625-5.609,20.735,11.217,26.683,6.8,1.207Z" transform="translate(-262.23 -264.132)"/>
            </g>
            <g transform="translate(50.174 96.98)">
                <path class="b" d="M351.323,344.442,341.3,356,315.8,365.517,290.31,359.4l-17-19.439V287.507h78.01Z" transform="translate(-273.314 -287.507)"/>
            </g>
            <g transform="translate(79.237 119.316)">
                <ellipse class="a" cx="10.501" cy="10.501" rx="10.501" ry="10.501"/>
            </g>
            <g transform="translate(0 0)">
                <path class="c" d="M287.767,385.394a4.3,4.3,0,0,1-.759-.069c-15.3-3.014-26-16.842-26-33.635a34.186,34.186,0,0,1,25.8-33.191,1.881,1.881,0,0,0,1.42-1.823v-.147a30.08,30.08,0,0,1,30.095-29.992,29.77,29.77,0,0,1,6.848.791,1.985,1.985,0,0,0,.432.049,1.879,1.879,0,0,0,1.591-.881,48.711,48.711,0,0,1,89.937,25.754,46.963,46.963,0,0,1-.31,5.327,1.875,1.875,0,0,0,1.215,1.974,34.429,34.429,0,0,1,22.442,32.138c0,16.805-10.471,30.05-26.06,32.954a4.075,4.075,0,0,1-.681.057h0a3.844,3.844,0,0,1-.73-7.624c11.829-2.2,19.779-12.4,19.779-25.387a26.655,26.655,0,0,0-21.341-26.032,3.864,3.864,0,0,1-2.994-4.613,40.475,40.475,0,0,0,.983-8.794,41.012,41.012,0,0,0-77.688-18.168,3.869,3.869,0,0,1-3.443,2.125,3.782,3.782,0,0,1-1.452-.29,22.407,22.407,0,0,0-30.931,20.611,22.016,22.016,0,0,0,.408,4.161,3.857,3.857,0,0,1-3.43,4.552,26.484,26.484,0,0,0-24.2,26.448c0,13.273,7.958,23.76,19.8,26.085a3.846,3.846,0,0,1-.738,7.62Z" transform="translate(-261.013 -263.731)"/>
                <g transform="translate(74.441 114.521)">
                    <path class="c" d="M294.559,333.853a3.851,3.851,0,0,1-3.846-3.846v-6.783a1.873,1.873,0,0,0-1.248-1.766,15.3,15.3,0,1,1,10.189,0,1.884,1.884,0,0,0-1.248,1.77v6.779A3.851,3.851,0,0,1,294.559,333.853Zm0-34.353a7.605,7.605,0,1,0,7.607,7.6A7.611,7.611,0,0,0,294.559,299.5Z" transform="translate(-279.263 -291.807)"/>
                </g>
                <g transform="translate(45.811 54.972)">
                    <path class="c" d="M316.17,401.71a43.98,43.98,0,0,1-43.926-43.93V317.7a3.851,3.851,0,0,1,3.847-3.846h10.691a1.88,1.88,0,0,0,1.88-1.876v-6.489a28.275,28.275,0,1,1,56.551,0v6.489a1.88,1.88,0,0,0,1.88,1.876h9.161A3.851,3.851,0,0,1,360.1,317.7v40.084A43.98,43.98,0,0,1,316.17,401.71Zm-34.353-80.168a1.881,1.881,0,0,0-1.88,1.88v34.357a36.235,36.235,0,0,0,72.471,0V323.422a1.883,1.883,0,0,0-1.88-1.88Zm35.12-36.641a20.608,20.608,0,0,0-20.582,20.582v6.489a1.877,1.877,0,0,0,1.876,1.876h37.412a1.877,1.877,0,0,0,1.876-1.876v-6.489A20.605,20.605,0,0,0,316.937,284.9Z" transform="translate(-272.244 -277.208)"/>
                </g>
            </g>
        </g>
        <g transform="translate(1036.638 5191.953)">
            <rect class="b" width="162.575" height="43.051" transform="translate(6.242 3.744)"/>
            <rect class="a" width="162.575" height="43.051" transform="translate(6.242 71.279)"/>
            <g transform="translate(0 0)">
                <path class="c" d="M124.67,322.761a9.314,9.314,0,0,1-9.3-9.306v-33.4a9.314,9.314,0,0,1,9.3-9.307H280.533a9.318,9.318,0,0,1,9.306,9.307v33.4a9.318,9.318,0,0,1-9.306,9.306Zm0-44.53a1.824,1.824,0,0,0-1.824,1.824v33.4a1.825,1.825,0,0,0,1.824,1.828H280.517a1.825,1.825,0,0,0,1.824-1.828l.016-33.4a1.821,1.821,0,0,0-1.824-1.828Z" transform="translate(-115.368 -270.749)"/>
                <g transform="translate(23.661 22.269)">
                    <path class="c" d="M121.335,280.1h0a3.741,3.741,0,0,1,3.739-3.739H244.742a3.741,3.741,0,0,1,3.739,3.739h0a3.742,3.742,0,0,1-3.739,3.743H125.074A3.742,3.742,0,0,1,121.335,280.1Z" transform="translate(-121.335 -276.365)"/>
                </g>
                <g transform="translate(0 66.799)">
                    <path class="c" d="M124.67,339.607a9.314,9.314,0,0,1-9.3-9.307V296.9a9.314,9.314,0,0,1,9.3-9.306H280.533a9.318,9.318,0,0,1,9.306,9.306v33.4a9.318,9.318,0,0,1-9.306,9.307Zm0-44.534a1.828,1.828,0,0,0-1.824,1.828v33.4a1.828,1.828,0,0,0,1.824,1.828H280.517a1.828,1.828,0,0,0,1.824-1.828l.016-33.4a1.821,1.821,0,0,0-1.824-1.828Z" transform="translate(-115.368 -287.595)"/>
                </g>
                <g transform="translate(23.661 89.067)">
                    <path class="c" d="M121.335,296.95h0a3.738,3.738,0,0,1,3.739-3.739h0a3.738,3.738,0,0,1,3.739,3.739h0a3.738,3.738,0,0,1-3.739,3.739h0A3.738,3.738,0,0,1,121.335,296.95Z" transform="translate(-121.335 -293.211)"/>
                    <g transform="translate(14.957)">
                        <path class="c" d="M125.107,296.95h0a3.741,3.741,0,0,1,3.739-3.739h0a3.741,3.741,0,0,1,3.739,3.739h0a3.741,3.741,0,0,1-3.739,3.739h0A3.741,3.741,0,0,1,125.107,296.95Z" transform="translate(-125.107 -293.211)"/>
                    </g>
                    <g transform="translate(29.918)">
                        <path class="c" d="M128.88,296.95h0a3.738,3.738,0,0,1,3.739-3.739h0a3.738,3.738,0,0,1,3.739,3.739h0a3.738,3.738,0,0,1-3.739,3.739h0A3.738,3.738,0,0,1,128.88,296.95Z" transform="translate(-128.88 -293.211)"/>
                    </g>
                    <g transform="translate(44.875)">
                        <path class="c" d="M132.652,296.95h0a3.738,3.738,0,0,1,3.739-3.739h0a3.738,3.738,0,0,1,3.739,3.739h0a3.738,3.738,0,0,1-3.739,3.739h0A3.738,3.738,0,0,1,132.652,296.95Z" transform="translate(-132.652 -293.211)"/>
                    </g>
                    <g transform="translate(59.836)">
                        <path class="c" d="M136.425,296.95h0a3.738,3.738,0,0,1,3.739-3.739h0a3.738,3.738,0,0,1,3.739,3.739h0a3.738,3.738,0,0,1-3.739,3.739h0A3.738,3.738,0,0,1,136.425,296.95Z" transform="translate(-136.425 -293.211)"/>
                    </g>
                    <g transform="translate(74.793)">
                        <path class="c" d="M140.2,296.95h0a3.738,3.738,0,0,1,3.739-3.739h0a3.738,3.738,0,0,1,3.739,3.739h0a3.738,3.738,0,0,1-3.739,3.739h0A3.738,3.738,0,0,1,140.2,296.95Z" transform="translate(-140.197 -293.211)"/>
                    </g>
                </g>
            </g>
        </g>
        <g transform="translate(980 5133.475)">
            <line class="d" y2="29.761" transform="translate(14.88)"/>
            <line class="d" x2="30" transform="translate(0 14.525)"/>
        </g>
        <g transform="translate(980 5133.475)">
            <line class="d" y2="29.761" transform="translate(14.88)"/>
            <line class="d" x2="30" transform="translate(0 14.525)"/>
        </g>
        <g transform="translate(1227.568 5238.487)">
            <line class="d" y2="29.761" transform="translate(14.88)"/>
            <line class="d" x2="29.761" transform="translate(0 14.88)"/>
        </g>
        <g transform="translate(1227.568 5238.487)">
            <line class="d" y2="29.761" transform="translate(14.88)"/>
            <line class="d" x2="29.761" transform="translate(0 14.88)"/>
        </g>
        <g transform="translate(1219.787 5019.533)">
            <line class="d" y2="29.761" transform="translate(14.88)"/>
            <line class="d" x2="30" transform="translate(0.213 14.467)"/>
        </g>
    </g>
</svg>