<svg xmlns="http://www.w3.org/2000/svg" width="278.55" height="308.25" viewBox="0 0 278.55 308.25"><defs><style>.a{fill:#fff;}.b{fill:#a901a2;}.c{fill:none;stroke:#d1d1d2;stroke-linecap:round;stroke-width:8px;}.d{fill:#fc60db;}</style></defs><circle class="a" cx="69.28" cy="69.28" r="69.28" transform="translate(70.03 169.69)"/><path class="b" d="M92.73,298.93a75.84,75.84,0,1,1,109.33-17.51,77.126,77.126,0,0,1-6.22,8c-1.13,1.26-2.31,2.51-3.52,3.7a3.27,3.27,0,0,1-4.09.39,2.861,2.861,0,0,1-.5-.42,3.26,3.26,0,0,1,0-4.6c1.09-1.07,2.17-2.21,3.23-3.39a71.5,71.5,0,0,0,5.69-7.34,69.27,69.27,0,1,0-99.95,16,3.251,3.251,0,0,1-3.81,5.27Z"/><path class="b" d="M105.47,276a3.25,3.25,0,0,1-2.3-5.55L133.6,240a1.58,1.58,0,0,0,0-2.24l-6.25-6.26a3.25,3.25,0,0,1,0-4.6,3.21,3.21,0,0,1,2.29-.95,3.25,3.25,0,0,1,2.3.95l6.25,6.26a1.57,1.57,0,0,0,2.24,0l6.25-6.26a3.253,3.253,0,0,1,4.6,4.6L145,237.77a1.58,1.58,0,0,0,0,2.24l11.09,11.1a3.249,3.249,0,1,1-4.59,4.6l-11.09-11.1a1.59,1.59,0,0,0-2.24,0l-30.42,30.46A3.25,3.25,0,0,1,105.47,276Z"/><path class="b" d="M189.24,238.9h0a3.24,3.24,0,0,1,3.25-3.25h0a3.25,3.25,0,0,1,3.25,3.25h0a3.25,3.25,0,0,1-3.25,3.24h0a3.24,3.24,0,0,1-3.25-3.24Z"/><rect class="b" width="6.5" height="6.5" rx="3.25" transform="translate(136.06 182.41)"/><path class="b" d="M82.88,238.9h0a3.25,3.25,0,0,1,3.25-3.25h0a3.24,3.24,0,0,1,3.25,3.25h0a3.24,3.24,0,0,1-3.25,3.24h0a3.25,3.25,0,0,1-3.25-3.24Z"/><line class="c" x2="29.76" transform="translate(4 180.78)"/><line class="c" y1="30" x2="0.01" transform="translate(18.52 165.66)"/><line class="c" x2="29.76" transform="translate(244.79 180.78)"/><line class="c" y1="29.76" transform="translate(259.67 165.9)"/><line class="c" x2="29.76" transform="translate(33.76 32.74)"/><line class="c" y1="30" transform="translate(48.23 17.41)"/><rect class="d" width="54.9" height="28.02" transform="translate(70.09 116.82)"/><rect class="a" width="54.9" height="28.02" transform="translate(155.77 116.82)"/><rect class="a" width="29.23" height="20.17" transform="translate(78.03 76.28)"/><rect class="d" width="29.23" height="20.17" transform="translate(125.7 76.28)"/><rect class="d" width="44.06" height="30.41" transform="translate(118.29 4.68)"/><rect class="a" width="29.23" height="20.17" transform="translate(173.38 76.28)"/><path class="b" d="M154.62,149.42a3.2,3.2,0,0,1-3.2-3.2v-28.6a3.2,3.2,0,0,1,3.2-3.2h28.6a1.57,1.57,0,0,0,1.57-1.57v-9.53a1.57,1.57,0,0,0-1.57-1.57h-9.53a3.2,3.2,0,0,1-3.2-3.2V74.71a3.2,3.2,0,0,1,3.2-3.2h9.53a1.57,1.57,0,0,0,1.57-1.57V60.41a1.56,1.56,0,0,0-1.57-1.56H145.09a1.56,1.56,0,0,0-1.57,1.56v9.53a1.57,1.57,0,0,0,1.57,1.57h9.53a3.2,3.2,0,0,1,3.2,3.2V98.55a3.2,3.2,0,0,1-3.2,3.2H126a3.21,3.21,0,0,1-3.21-3.2V74.71a3.21,3.21,0,0,1,3.21-3.2h9.53a1.57,1.57,0,0,0,1.57-1.57V60.41a1.56,1.56,0,0,0-1.57-1.56H97.41a1.56,1.56,0,0,0-1.56,1.56v9.53a1.56,1.56,0,0,0,1.56,1.57H107a3.21,3.21,0,0,1,3.2,3.2V98.55a3.21,3.21,0,0,1-3.2,3.2H97.41a1.56,1.56,0,0,0-1.56,1.57v9.53a1.57,1.57,0,0,0,1.56,1.57H126a3.2,3.2,0,0,1,3.2,3.2v28.6a3.2,3.2,0,0,1-3.2,3.2H68.81a3.2,3.2,0,0,1-3.2-3.2v-28.6a3.2,3.2,0,0,1,3.2-3.2H87.88a1.57,1.57,0,0,0,1.56-1.57v-9.53a1.56,1.56,0,0,0-1.56-1.57H78.34a3.21,3.21,0,0,1-3.2-3.2V74.71a3.21,3.21,0,0,1,3.2-3.2h9.54a1.56,1.56,0,0,0,1.56-1.57V55.64a3.21,3.21,0,0,1,3.21-3.2h42.9a1.56,1.56,0,0,0,1.57-1.56V41.34a1.56,1.56,0,0,0-1.57-1.56H116.48a3.21,3.21,0,0,1-3.2-3.21V3.2a3.21,3.21,0,0,1,3.2-3.2h47.67a3.21,3.21,0,0,1,3.21,3.2V36.57a3.21,3.21,0,0,1-3.21,3.21H145.09a1.56,1.56,0,0,0-1.57,1.56v9.54a1.56,1.56,0,0,0,1.57,1.56H188a3.2,3.2,0,0,1,3.2,3.2v14.3a1.57,1.57,0,0,0,1.57,1.57h9.53a3.21,3.21,0,0,1,3.21,3.2V98.55a3.21,3.21,0,0,1-3.21,3.2h-9.53a1.57,1.57,0,0,0-1.57,1.57v9.53a1.57,1.57,0,0,0,1.57,1.57h19.07a3.2,3.2,0,0,1,3.2,3.2v28.6a3.2,3.2,0,0,1-3.2,3.2Zm4.77-28.6a1.56,1.56,0,0,0-1.57,1.56v19.07a1.57,1.57,0,0,0,1.57,1.57h47.67a1.56,1.56,0,0,0,1.56-1.57V122.38a1.56,1.56,0,0,0-1.56-1.56Zm-85.81,0A1.56,1.56,0,0,0,72,122.38v19.07A1.57,1.57,0,0,0,73.58,143h47.67a1.56,1.56,0,0,0,1.56-1.57V122.38a1.56,1.56,0,0,0-1.56-1.56ZM178.46,77.91a1.57,1.57,0,0,0-1.57,1.57v14.3a1.57,1.57,0,0,0,1.57,1.57h19.07a1.57,1.57,0,0,0,1.56-1.57V79.48a1.57,1.57,0,0,0-1.56-1.57Zm-47.68,0a1.57,1.57,0,0,0-1.56,1.57v14.3a1.57,1.57,0,0,0,1.56,1.57h19.07a1.57,1.57,0,0,0,1.57-1.57V79.48a1.57,1.57,0,0,0-1.57-1.57Zm-47.67,0a1.57,1.57,0,0,0-1.56,1.57v14.3a1.57,1.57,0,0,0,1.56,1.57h19.07a1.57,1.57,0,0,0,1.56-1.57V79.48a1.57,1.57,0,0,0-1.56-1.57Zm38.14-71.5A1.56,1.56,0,0,0,119.68,8V31.81a1.56,1.56,0,0,0,1.57,1.56h38.14A1.56,1.56,0,0,0,161,31.81V8a1.56,1.56,0,0,0-1.56-1.56Z"/></svg>