<svg xmlns="http://www.w3.org/2000/svg" width="243.13" height="317.986" viewBox="0 0 243.13 317.986">
    <defs>
        <style>.a{fill:#fc60db;}.b{fill:#fff;}.c{fill:#a901a2;}.d{fill:none;stroke:#d1d1d2;stroke-linecap:round;stroke-width:8px;}</style>
    </defs>
    <g transform="translate(0 0.002)">
        <path class="a" d="M96.33,91.8,61.07,127.07l13.27,13.27,35.47-35.46Z"/>
        <path class="b" d="M104.1,63.23l17.76-17.77,34.66,34.66L139.84,96.8Z"/>
        <path class="a" d="M158.82,81.2l-10.27,8.64-8.78,13.79,5.94,24.72,22.16,11.08,14.72-3.65L164.02,117.2l12.7-12.7,18.98,18.99,5.13-18.11L186.51,85.39,165.3,80.25Z"/>
        <path class="a" d="M113.42,53.91l9.59-15-3.92-19.59L106.5,7.3,90.86,3.24l-7.7,2.91L97.21,24.32,86.94,38.64l-18.91-15L63.7,29.45l5.27,21.89L84.78,62.42,106.5,61.2Z"/>
        <path class="a" d="M173.41,21.08,190.23,4.26l8.04,8.03L181.04,29.52Z"/>
        <path class="c" d="M170.41,142.67a34,34,0,0,1-24-9.59,34.43,34.43,0,0,1-10.2-23.77,33.3,33.3,0,0,1,1-8.46,1.52,1.52,0,0,0-.39-1.41L123.17,85.82a1.46,1.46,0,0,0-1.06-.44h0a1.5,1.5,0,0,0-1.06.44L109.3,97.59a1.51,1.51,0,0,0,0,2.12l10.42,10.41a3.055,3.055,0,1,1-4.32,4.32l-2.9-2.89a1.47,1.47,0,0,0-1.06-.44,1.44,1.44,0,0,0-1,.44L81.93,140a9.07,9.07,0,0,1-6.46,2.64,9.77,9.77,0,0,1-7-2.91L62.82,134a9.52,9.52,0,0,1-.28-13.42L91,92.16a1.5,1.5,0,0,0,0-2.11l-2.9-2.9a3.06,3.06,0,0,1,4.32-4.33l10.45,10.45a1.49,1.49,0,0,0,1,.44h0a1.5,1.5,0,0,0,1.06-.44l11.76-11.78a1.49,1.49,0,0,0,0-2.11L103.1,65.75a1.44,1.44,0,0,0-1.41-.39,33.11,33.11,0,0,1-7.81,1h-.65A34.44,34.44,0,0,1,69.46,56.11c-9.46-9.46-12.24-24.6-6.9-37.68a3,3,0,0,1,2.22-1.84,2.82,2.82,0,0,1,.59-.05,3,3,0,0,1,2.17.88L84.63,34.5a1.47,1.47,0,0,0,1.06.44,1.44,1.44,0,0,0,1-.44l7.64-7.63a1.5,1.5,0,0,0,0-2.11L77.3,7.67a3.05,3.05,0,0,1,1-5A36.16,36.16,0,0,1,92,0a34,34,0,0,1,24,9.59,34.37,34.37,0,0,1,9.13,32.65,1.49,1.49,0,0,0,.39,1.42L139,57.14a1.52,1.52,0,0,0,2.12,0l30.2-30.24a1.48,1.48,0,0,0,0-2.11L170,23.48a3.06,3.06,0,0,1,0-4.32L188.22,1a3.066,3.066,0,0,1,4.32,0l9.06,9a3.06,3.06,0,0,1,0,4.32l-18.2,18.2a3,3,0,0,1-2.16.89,3.08,3.08,0,0,1-2.16-.89l-1.32-1.33a1.53,1.53,0,0,0-1.06-.44,1.51,1.51,0,0,0-1.06.44L145.41,61.46a1.48,1.48,0,0,0,0,2.11L158.88,77a1.46,1.46,0,0,0,1.06.44,1.64,1.64,0,0,0,.37,0,33.311,33.311,0,0,1,8.28-1A34.27,34.27,0,0,1,193,86.56c9.46,9.46,12.23,24.6,6.9,37.69a3.07,3.07,0,0,1-2.23,1.84,3.7,3.7,0,0,1-.59,0,3,3,0,0,1-2.17-.89l-17.09-17.08a1.48,1.48,0,0,0-2.11,0L168,115.8a1.51,1.51,0,0,0,0,2.12L185.12,135a3,3,0,0,1,.84,2.76,3.08,3.08,0,0,1-1.85,2.23A36.07,36.07,0,0,1,170.41,142.67ZM96.38,96a1.51,1.51,0,0,0-1.06.44l-28.46,28.5a3,3,0,0,0-.83,2.49,3.82,3.82,0,0,0,1.11,2.29l5.69,5.69a3.79,3.79,0,0,0,2.64,1.12,3,3,0,0,0,2.14-.85l28.45-28.46a1.48,1.48,0,0,0,0-2.11l-8.63-8.63A1.49,1.49,0,0,0,96.38,96Zm72.17-13.57a26,26,0,0,0-26.21,26.73,28.35,28.35,0,0,0,8.41,19.56,28,28,0,0,0,19.73,7.76,29.47,29.47,0,0,0,3.87-.25,1.49,1.49,0,0,0,.87-2.53l-12-12a7,7,0,0,1-2.06-4.82,6.66,6.66,0,0,1,2-4.88l8.79-8.79a6.35,6.35,0,0,1,4.63-2h.23a7,7,0,0,1,4.84,2.06l12,12a1.52,1.52,0,0,0,1.06.44,1.61,1.61,0,0,0,.48-.08,1.5,1.5,0,0,0,1-1.23c1.13-8.94-1.68-17.76-7.52-23.6a28.26,28.26,0,0,0-20.12-8.33Zm-45.8-32.3h-.18a1.52,1.52,0,0,0-1.1.71,32.22,32.22,0,0,1-4.68,6,31.85,31.85,0,0,1-6.36,4.89,1.53,1.53,0,0,0-.72,1.1,1.49,1.49,0,0,0,.43,1.24L138.4,92.41a1.49,1.49,0,0,0,1.06.43h.18a1.48,1.48,0,0,0,1.1-.72,31,31,0,0,1,10.91-11,1.49,1.49,0,0,0,.28-2.33L123.8,50.61a1.49,1.49,0,0,0-1.05-.44Zm-55-23.28a1.31,1.31,0,0,0-.48.08,1.49,1.49,0,0,0-1,1.22c-1.14,8.94,1.67,17.76,7.51,23.6a28.36,28.36,0,0,0,19.57,8.42h.71a26,26,0,0,0,26-26.84,28.31,28.31,0,0,0-8.4-19.47A28,28,0,0,0,91.91,6.15a30.69,30.69,0,0,0-3.84.24,1.49,1.49,0,0,0-.87,2.54l12,12a6.86,6.86,0,0,1,.1,9.69l-8.79,8.8a6.72,6.72,0,0,1-4.76,2,6.92,6.92,0,0,1-4.94-2.06l-12-12a1.49,1.49,0,0,0-1.06-.47ZM180.19,25a1.48,1.48,0,0,0,2.11,0l11.76-11.77a1.48,1.48,0,0,0,0-2.11L191.43,8.5a1.49,1.49,0,0,0-1.05-.44,1.51,1.51,0,0,0-1.06.44L177.56,20.27a1.48,1.48,0,0,0,0,2.11l1.29,1.29Z"/>
        <line class="d" x2="29.76" transform="translate(18.88 255.17)"/>
        <line class="d" y1="30" transform="translate(33.41 240.05)"/>
        <line class="d" x2="29.77" transform="translate(209.36 159.07)"/>
        <line class="d" y1="29.76" transform="translate(224.24 144.19)"/>
        <line class="d" x2="29.76" transform="translate(4 78.75)"/>
        <line class="d" y1="30" transform="translate(18.47 63.42)"/>
        <circle class="a" cx="70.023" cy="70.023" r="70.023" transform="translate(54.723 294.283) rotate(-80.256)"/>
        <path class="b" d="M134.49,307.39A69.41,69.41,0,0,0,176.9,293c-5.8-9.43-12.25-21.85-10.15-27.59,3.61-9.9,0-15.58,0-15.58l-1.23-3.49-6.79-6.78-29.88-8.43L112,243.58l3.66,11.55,18.84,11,.51,36-3.17,5.19C132.71,307.35,133.6,307.39,134.49,307.39Z"/>
        <path class="b" d="M204.2,240.81l-9-37.93-11.36-12.46-3.39-5.12L163,192.07l-5.35,1.83v12.83l-4.92,3.3-13.24-2.29-4.95-2.84-4.72.92,2,5.5,4.4,6.05,7.34,4.21H151l14,7.62,11,6.32,5.49,9.35,2.2,5.86s13,9.9,20.54-6Z"/>
        <path class="b" d="M67.99,249.82l18.33,5.5,11.92,14.66,9.16,6.42-1.09,7.15L92.92,295.28,75.69,274.75Z"/>
        <path class="b" d="M66.52,232.95l9.9-2.75L94.2,212.37h7.89v-7.84L84.22,191.34,70.46,213.88Z"/>
        <path class="b" d="M109.11,173.92l-2.8,14.12,15.75,6.6,3.31-11.55,13.56-5.5-.73-9.62Z"/>
        <path class="b" d="M153.97,257.51l38.13,7.89-5.32,9.16,16.68,16.69-13.84,13.84-16.85-16.86-9.44,9.44Z"/>
        <path class="c" d="M134.49,310.27A72,72,0,0,1,92.4,296.71l-.15-.1-.32-.15h0c-.26-.19-.51-.41-.76-.62s-.51-.44-.77-.64c-1.32-1-2.52-2-3.66-3-.89-.78-1.63-1.44-2.35-2.13-1.15-1.11-2.32-2.33-3.69-3.84l-.64-.69c-.32-.34-.63-.68-.93-1a73.13,73.13,0,0,1-9-13.38l-.21-.44a71.113,71.113,0,0,1-3.08-6.88c-.1-.26-.19-.51-.28-.76l-.15-.42a61.739,61.739,0,0,1-2-6.44q-.22-.81-.42-1.62c-.48-2-.87-4-1.2-6.27a4.479,4.479,0,0,0-.11-.72c-.06-.39-.13-.78-.18-1.18-.25-2.09-.41-4.29-.47-6.7v-1.76a2.262,2.262,0,0,1,0-.26,71.2,71.2,0,0,1,.68-9.4v-.08a1.16,1.16,0,0,0,0-.38c.14-1,.32-1.94.51-2.95l.1-.55a4.509,4.509,0,0,1,.12-.72c.04-.24.09-.54.14-.8.41-1.94.92-4,1.58-6.14l.33-1,.21-.6c.53-1.64,1.12-3.24,1.74-4.77l.16-.39c.14-.35.28-.69.43-1a72.19,72.19,0,0,1,6.35-11.63l.28-.4c1.11-1.62,2.34-3.27,3.67-4.9.21-.26.42-.52.64-.77l.54-.68c.28-.34.55-.68.84-1,.08-.08.22-.19.37-.31l.1-.07a1.07,1.07,0,0,0,.19-.18,72.45,72.45,0,0,1,24.83-17.85h.1c.09,0,.17-.1.26-.15a70.874,70.874,0,0,1,6.75-2.47c.28-.09.56-.16.84-.23s.54-.13.81-.21a51.485,51.485,0,0,1,5.06-1.3c.7-.15,1.41-.26,2.16-.37l1.1-.17.94-.16c.93-.15,1.8-.3,2.69-.39,1-.12,2.09-.18,3.2-.23l.87-.05,1.09-.08c.43,0,.87-.07,1.31-.09h1.61a72.4,72.4,0,0,1,48.2,18.46l.2.15.22.13a1.529,1.529,0,0,1,.23.15c.29.26.56.55.84.84l.71.73c.68.66,1.34,1.34,2,2,1.22,1.28,2.13,2.28,2.94,3.24.6.7,1.15,1.41,1.74,2.17l.18.22c.85,1.1,1.64,2.12,2.39,3.2.63.9,1.2,1.82,1.8,2.79l.69,1.11c.45.71.87,1.38,1.26,2.08.76,1.36,1.43,2.75,2.17,4.29.13.29.28.59.43.88s.4.81.58,1.22c.68,1.56,1.36,3.33,2.12,5.54.07.21.15.42.23.63s.16.42.23.63c.65,2,1.24,4.23,1.75,6.54a1.4,1.4,0,0,0,.1.39l.06.23c.46,2.18.83,4.52,1.1,6.93v.51a75,75,0,0,1,.4,7.56,73.473,73.473,0,0,1-1.449,14.514,3.14,3.14,0,0,1-3,2.506,2.619,2.619,0,0,1-.62-.07,3.13,3.13,0,0,1-2.45-3.67,66.1,66.1,0,0,0,1.33-13.28c0-2.16-.11-4.39-.33-6.61-.17-1.68-.44-3.45-.84-5.59a.717.717,0,0,0-.05-.32,4.345,4.345,0,0,0-.08-.52c-.39-2-.91-4-1.53-6.06a.323.323,0,0,0-.06-.24c-.51-1.66-1.13-3.39-1.95-5.44a.987.987,0,0,0-.1-.27l-.15-.42c-.58-1.39-1.26-2.73-1.9-4l-.1-.2c-.11-.21-.2-.42-.3-.63-.17-.38-.34-.74-.54-1.1-.32-.6-.67-1.17-1-1.72l-.51-.82-.5-.84c-.43-.75-.89-1.52-1.39-2.27l-.12-.17a67,67,0,0,0-8-9.7,1.52,1.52,0,0,0-1.07-.45,1.66,1.66,0,0,0-.58.11,71.312,71.312,0,0,1-10.85,3.23c-.71.17-1.71.33-2.58.47a27.831,27.831,0,0,0-5.23,1.18,1.53,1.53,0,0,0-.88,1.84,13.9,13.9,0,0,0,.52,1.34c.88,2,2.09,4.71,1.08,7.61-1.46,4.21-6.23,5.71-9.87,5.71a8.243,8.243,0,0,1-1.22-.06,23.19,23.19,0,0,1-8.1-2.6,28.608,28.608,0,0,0-4-1.65,14.13,14.13,0,0,0-3.89-.53h-.42a1.53,1.53,0,0,0-1.31.85,1.51,1.51,0,0,0,.13,1.56,26.931,26.931,0,0,0,4.4,4.2c.54.45,1,.83,1.44,1.2,2.35,2,3.61,2.87,5.3,2.87a5.916,5.916,0,0,0,.71-.05l1.2-.16h.19a22.222,22.222,0,0,1,3.28-.32h.13c4.22.05,7.18,2.38,9.79,4.44l.07.05a22.659,22.659,0,0,0,3.33,2.34,47.632,47.632,0,0,0,4.66,2c5.07,2,10.82,4.17,13.26,10.24a26.742,26.742,0,0,1,.95,3.35c.8,3.37,1.71,7.2,5.28,9.49a3.113,3.113,0,0,1-1.69,5.73,3.06,3.06,0,0,1-1.68-.5c-5.66-3.64-7-9.43-8-13.27l-.09-.38a16.583,16.583,0,0,0-.59-2.1c-1.33-3.31-4.56-4.76-9.71-6.75a51.729,51.729,0,0,1-5.31-2.28,29,29,0,0,1-4.36-3c-2.43-1.92-4-3.09-6-3.11h-.09a14.381,14.381,0,0,0-2,.2h-.29c-.59.09-1.18.18-1.76.24a11.453,11.453,0,0,1-1.17.06c-4.4,0-7.34-2.53-9.48-4.37l-1.3-1.07c-2.92-2.38-6.91-5.64-7.4-10a6.3,6.3,0,0,1,2.18-5.74,9.87,9.87,0,0,1,6.44-1.9,21.13,21.13,0,0,1,5.64.81,34.25,34.25,0,0,1,4.78,2,17.85,17.85,0,0,0,6,2h.7a5.72,5.72,0,0,0,3.7-1.14,1.51,1.51,0,0,0,.31-1.62,1.58,1.58,0,0,0-.34-.5c-.11-.21-.31-.65-.6-1.3-.65-1.46-2.17-4.88-.44-8.08,2-3.57,7-4.38,10.73-5h.25c.69-.1,1.34-.21,1.89-.34,1.72-.4,3.38-.83,4.93-1.26a1.53,1.53,0,0,0,.47-2.71,66.33,66.33,0,0,0-30.09-11.72h-.19a1.52,1.52,0,0,0-1.51,1.72c1,7.22-3.67,9.16-8.11,10.42l-.27.07A21.266,21.266,0,0,0,130,185c-2.59,1.16-4.37,2.27-4.75,4a4,4,0,0,0-.06,2.1c.37,2.26.47,4.55-2.33,7.64a3.18,3.18,0,0,1-2.17,1h-.14a3.08,3.08,0,0,1-2.11-.83,24.89,24.89,0,0,0-5-3.28c-3.33-1.82-6.72-3.67-8.54-7.56l-.05-.09a14.06,14.06,0,0,1-2-5.93,1.53,1.53,0,0,0-.81-1.26,1.58,1.58,0,0,0-.71-.17,1.55,1.55,0,0,0-.78.21,67.131,67.131,0,0,0-11,8.29,1.51,1.51,0,0,0,.2,2.39c1.67,1.09,3.3,2.33,4.68,3.4.69.54,1.39,1.09,2.11,1.63h.07c7.33,4.91,10.67,9.12,8.58,18.54a3.15,3.15,0,0,1-3,2.44,2.728,2.728,0,0,1-.5-.05,27.371,27.371,0,0,1-4.32-1.29,1.429,1.429,0,0,0-.5-.09,1.53,1.53,0,0,0-1.32.76c-1.69,2.92-5.91,5.25-10,7.51h-.08c-1.2.67-2.7,1.5-3.43,2a1.489,1.489,0,0,0-.41.42c-.3.48-.66,1.11-1,1.79l-.36.65c-2.43,4.35-3.58,6.18-5.25,6.85a8.21,8.21,0,0,1-3.24.8l-.44-.06h-.1a1.51,1.51,0,0,0-1.33.78,1.53,1.53,0,0,0,.09,1.63c.84,1.15,1.57,2.37,2.23,3.44a23.42,23.42,0,0,0,2.77,4c1.56,1.74,2,2.27,3.33,2.56a38.56,38.56,0,0,0,4.29.68c2.91.27,5.84.78,7.18,3.68a6,6,0,0,1,.52,2.29,1.51,1.51,0,0,0,.84,1.28c1.38.69,3.25,2.24,4.35,5.68.18.58.34,1.17.49,1.76a13.331,13.331,0,0,0,.82,2.48,1.219,1.219,0,0,0,.12.19l.08.12a1.5,1.5,0,0,0,.19.25c.8.85,2.3,1.07,4,1.34a20.51,20.51,0,0,1,3.94.85,11.68,11.68,0,0,1,6,4.39,8.43,8.43,0,0,1,.75,8.34c-1.31,2.7-3.76,4-5.93,5.21a15.257,15.257,0,0,0-2.53,1.57c-1.08.86-2.18,1.79-3.19,2.68a1.52,1.52,0,0,0,.22,2.44,66.43,66.43,0,0,0,30.5,9.4h.06a1.521,1.521,0,0,0,1.23-2.45c-4-5.18-2.37-13.63-1.21-19.8a44.209,44.209,0,0,0,1-7.17c0-7.76-1.59-8.56-7.1-10.13a33.77,33.77,0,0,1-9.38-3.88c-4.84-3.63-8.77-10.77-6.56-16.87,1.56-3.78,4.82-5.25,7.43-6.44l1.11-.51a10.489,10.489,0,0,0,2.73-1.62,1.24,1.24,0,0,0,.18-.22,4.451,4.451,0,0,0,.37-.71l.08-.19c.21-.45.42-.9.66-1.31a7.329,7.329,0,0,1,.9-1.26,7.57,7.57,0,0,1,5-2.28,27.14,27.14,0,0,1,3.19-.18A43.45,43.45,0,0,1,148.19,233c1.78.84,3.77,1.55,5.52,2.19,5.77,2.1,12.33,4.48,14.76,10.55a3.11,3.11,0,1,1-5.77,2.32c-1.4-3.49-6.11-5.2-11.1-7a62.482,62.482,0,0,1-6-2.41,36.84,36.84,0,0,0-15-3.6,20.259,20.259,0,0,0-2.52.14h-.27a1.5,1.5,0,0,0-1.13.86l-.18.38a9.5,9.5,0,0,1-1.89,2.92,15.26,15.26,0,0,1-4.41,2.81l-1.25.58c-2.25,1-3.67,1.73-4.2,3-1.06,2.94,1.4,7.33,4.25,9.46l.1.07a28.13,28.13,0,0,0,7.48,3c6.82,1.95,11.64,4.24,11.64,16.12a48.73,48.73,0,0,1-1.12,8.33c-1.6,8.46-2.38,14.59,2.22,16.38a3.1,3.1,0,0,1,2,2.82,1.55,1.55,0,0,0,.53,1.12,1.52,1.52,0,0,0,1,.37h.38c1.53-.19,3.11-.39,4.66-.71a3.829,3.829,0,0,1,.6-.05,3.1,3.1,0,0,1,.63,6.15A72.65,72.65,0,0,1,134.49,310.27ZM72,253.19a1.57,1.57,0,0,0-.85.26,1.52,1.52,0,0,0-.61,1.67l.15.58c.34,1.2.72,2.41,1.13,3.59.15.43.31.85.46,1.27l.14.36c.45,1.19.93,2.45,1.48,3.69l.19.4c.05.08.09.17.13.25a67.06,67.06,0,0,0,3.67,6.88c.12.19.23.38.34.57.24.4.48.81.74,1.2.47.73,1,1.43,1.47,2.12l.25.34c.53.73,1.15,1.59,1.82,2.43.51.65,1.05,1.31,1.6,1.95.83,1,1.72,1.95,2.62,2.89l.42.44c.27.28.53.56.81.84,1.54,1.51,3,2.81,4.4,4a1.52,1.52,0,0,0,2-.08c1.75-1.66,3.54-3.12,4.89-4.21l.07-.06a19,19,0,0,1,3.42-2.19l.11-.06c2-1.07,2.93-1.68,3.31-2.46a1.46,1.46,0,0,0,.15-.49,2.77,2.77,0,0,0-.48-1.67,5.7,5.7,0,0,0-2.84-2,15.576,15.576,0,0,0-2.65-.55h-.12c-2.41-.36-5.41-.81-7.68-3.23a8.3,8.3,0,0,1-1.38-2,17.12,17.12,0,0,1-1.3-3.73c-.14-.53-.26-1-.41-1.46a4.7,4.7,0,0,0-.94-1.81,1.47,1.47,0,0,0-.59-.37A5.83,5.83,0,0,1,85.24,261,5.19,5.19,0,0,1,84,257.61a1.53,1.53,0,0,0-1.37-1.43h-.4a43.688,43.688,0,0,1-5.36-.83,9.47,9.47,0,0,1-4-1.81,1.51,1.51,0,0,0-.87-.35Zm12-57.66a1.53,1.53,0,0,0-1.19.57c-.26.33-.51.67-.76,1l-.43.59c-1.16,1.52-2.06,2.8-2.86,4-.55.87-1.08,1.75-1.56,2.58-.77,1.3-1.51,2.68-2.2,4.09l-.21.42c-.33.67-.68,1.37-1,2.1-.82,1.85-1.58,3.8-2.24,5.78l-.15.43a6.565,6.565,0,0,0-.24.66,66.5,66.5,0,0,0-1.84,7.36c0,.11,0,.22,0,.34v.17a1.54,1.54,0,0,0,.41,1.33,8.78,8.78,0,0,1,1.15,1.49,1.51,1.51,0,0,0,1.29.73h0a1.54,1.54,0,0,0,1.3-.76c.46-.79.93-1.63,1.26-2.23.74-1.31,1.65-2.92,2.18-3.63a3.741,3.741,0,0,1,.27-.31,25.379,25.379,0,0,1,5.28-3.39,67,67,0,0,0,5.78-3.47,1.52,1.52,0,0,0,.42-2,2.83,2.83,0,0,1-.35-.8,3.27,3.27,0,0,1,.32-2.55,3.58,3.58,0,0,1,3.3-1.67,17.83,17.83,0,0,1,5.29,1.18,1.619,1.619,0,0,0,.49.08,1.54,1.54,0,0,0,1.1-.47,1.52,1.52,0,0,0,.31-1.61c-.82-2.1-2.7-3.64-6.11-5.91l-.15-.1c-.78-.58-1.54-1.17-2.28-1.76a43.119,43.119,0,0,0-5.81-4,1.5,1.5,0,0,0-.77-.24Zm26.4-10.4c1.11,2.29,3.26,3.46,6,5l.3.16a1.51,1.51,0,0,0,.72.18,1.58,1.58,0,0,0,.71-.17,1.54,1.54,0,0,0,.81-1.19,8.5,8.5,0,0,1,.32-1.61s0-.09,0-.14c.95-4.8,5.7-6.92,8.26-8.06a29.9,29.9,0,0,1,3.71-1.24,13,13,0,0,0,3.05-1.09,1.52,1.52,0,0,0,.67-1.53h0a10.593,10.593,0,0,0-.1-1.06,4.06,4.06,0,0,0-2.08-2.61,1.56,1.56,0,0,0-.84-.25h-.15c-.82,0-1.67.06-2.52.13h-.63a10.444,10.444,0,0,0-1.42.12c-1.91.2-3.81.5-5.64.86l-.91.2-.52.12c-1.63.36-3.19.76-4.65,1.2-.42.12-.84.24-1.26.38s-.55.19-.81.29l-.56.21a1.53,1.53,0,0,0-.94.92,2.32,2.32,0,0,1-.24.52c-.39.66-.76,1.25-1.1,1.79-1.92,3.06-1.94,3.65-.16,6.87Z"/>
        <path class="c" d="M190.08,310.27a3.09,3.09,0,0,1-2.2-.91l-15.26-15.25a1.49,1.49,0,0,0-1.07-.45,1.53,1.53,0,0,0-1.08.45l-6,6a3.17,3.17,0,0,1-2.21.91,3.11,3.11,0,0,1-3-2.44L150,256.88a3.11,3.11,0,0,1,3-3.78,3.21,3.21,0,0,1,.68.07l41.68,9.26a3.14,3.14,0,0,1,2.31,2.17,3.09,3.09,0,0,1-.79,3.07l-6,6a1.53,1.53,0,0,0,0,2.15l15.26,15.25a3.13,3.13,0,0,1,0,4.41l-13.9,13.89a3.09,3.09,0,0,1-2.16.9Zm-18.53-24.75a3.09,3.09,0,0,1,2.2.91L189,301.69a1.55,1.55,0,0,0,1.08.44,1.51,1.51,0,0,0,1.07-.44l7.35-7.35a1.53,1.53,0,0,0,0-2.15l-15.25-15.25a3.1,3.1,0,0,1,0-4.4l3.29-3.3a1.52,1.52,0,0,0,.39-1.5,1.54,1.54,0,0,0-1.13-1.06l-26.35-5.86h-.33a1.52,1.52,0,0,0-1.48,1.85L163.49,289a1.5,1.5,0,0,0,1.06,1.13,1.55,1.55,0,0,0,.43.07,1.52,1.52,0,0,0,1.07-.45l3.3-3.3a3.09,3.09,0,0,1,2.2-.93Z"/>
    </g>
</svg>